<svg version="1.1" id="Layer_1" xmlns="http://www.w3.org/2000/svg" xmlns:xlink="http://www.w3.org/1999/xlink" x="0px" y="0px"
	 width="100%" viewBox="0 0 500 500" enable-background="new 0 0 500 500" xml:space="preserve">
<path fill="#000000" opacity="1.000000" stroke="none" 
	d="
M248.000000,501.000000 
	C165.333359,501.000000 83.166702,501.000000 1.000044,501.000000 
	C1.000029,334.333405 1.000029,167.666779 1.000015,1.000134 
	C167.666565,1.000089 334.333130,1.000089 500.999756,1.000045 
	C500.999847,167.666519 500.999847,334.333038 500.999939,500.999786 
	C416.833344,501.000000 332.666656,501.000000 248.000000,501.000000 
M128.128159,266.699463 
	C128.728073,266.766418 129.327972,266.833405 130.596771,267.205383 
	C133.050125,268.147614 135.503479,269.089844 137.951385,270.738953 
	C135.988007,273.289734 133.869232,275.737488 132.094284,278.413269 
	C128.635788,283.627075 130.567184,290.026978 136.621277,292.255920 
	C138.098068,293.225708 139.472839,294.428070 141.068054,295.127960 
	C152.358063,300.081390 164.520218,301.117981 176.518875,301.551941 
	C192.000519,302.111816 207.554504,301.647034 223.038162,300.856262 
	C234.637177,300.263855 246.215927,298.751251 257.726746,297.109039 
	C268.419159,295.583557 279.084534,293.681213 289.627411,291.339539 
	C305.300781,287.858368 320.990204,284.316193 336.422821,279.922089 
	C351.364197,275.667847 366.177856,270.778473 378.864532,261.171143 
	C384.135834,257.179260 388.550507,253.001434 386.892761,244.849426 
	C387.035675,240.132401 383.107086,238.964050 380.099670,236.925232 
	C378.939697,236.138840 377.461243,235.103683 377.142700,233.910858 
	C375.021912,225.968689 373.176025,217.953110 371.783783,209.769806 
	C372.195618,208.919662 372.607452,208.069504 373.772186,206.782669 
	C373.830811,202.619507 375.516998,198.088364 371.039215,194.961014 
	C371.039215,194.961014 371.061218,194.905838 370.816284,194.247726 
	C366.912628,190.336716 361.937866,188.754425 356.700226,189.084305 
	C350.310669,189.486740 343.975830,190.758621 337.438263,191.679718 
	C333.994446,184.081711 328.019897,180.225983 319.345947,180.993729 
	C310.564606,181.770981 301.798767,182.789291 293.002563,183.277969 
	C291.172699,183.379608 288.538666,182.107697 287.504700,180.616379 
	C285.550354,177.797516 284.680298,174.255432 283.016418,171.200851 
	C279.303375,164.384415 271.791626,160.836838 265.294708,162.947372 
	C261.180786,162.941498 257.066833,162.935623 252.620529,162.161758 
	C251.794327,162.102692 250.930801,161.856384 250.147522,162.012543 
	C237.710342,164.492279 225.217834,166.743668 212.876099,169.636597 
	C203.891769,171.742554 194.996353,174.383240 186.272568,177.397079 
	C179.091080,179.878128 171.955292,182.763550 165.268646,186.345917 
	C152.844437,193.002258 145.899506,204.361572 142.458817,217.479767 
	C140.958557,223.199722 138.505142,226.425552 133.454895,229.035477 
	C122.649635,234.619461 118.682816,242.568710 121.970314,252.715286 
	C122.620613,253.499283 123.270920,254.283295 123.980736,254.997559 
	C123.980736,254.997559 123.897591,255.036240 124.045296,255.573288 
	C124.357430,255.750656 124.669556,255.928009 124.981537,256.030945 
	C124.981537,256.030945 124.907806,256.041199 124.951813,256.790405 
	C125.274269,258.882629 125.596725,260.974823 125.990891,262.996643 
	C125.990891,262.996643 125.905342,263.049927 125.977142,263.710236 
	C126.620682,264.496002 127.264214,265.281799 127.961983,266.043518 
	C127.961983,266.043518 127.942535,266.099579 128.128159,266.699463 
z"/>
<path fill="#7F352E" opacity="1.000000" stroke="none" 
	d="
M386.732422,245.552612 
	C388.550507,253.001434 384.135834,257.179260 378.864532,261.171143 
	C366.177856,270.778473 351.364197,275.667847 336.422821,279.922089 
	C320.990204,284.316193 305.300781,287.858368 289.627411,291.339539 
	C279.084534,293.681213 268.419159,295.583557 257.726746,297.109039 
	C246.215927,298.751251 234.637177,300.263855 223.038162,300.856262 
	C207.554504,301.647034 192.000519,302.111816 176.518875,301.551941 
	C164.520218,301.117981 152.358063,300.081390 141.068054,295.127960 
	C139.472839,294.428070 138.098068,293.225708 136.220398,291.732544 
	C134.746887,289.086761 132.234680,286.293640 132.855881,284.960510 
	C135.284271,279.748749 138.703400,274.998657 141.620041,270.293488 
	C141.118912,270.257721 139.537872,270.144897 137.956833,270.032074 
	C135.503479,269.089844 133.050125,268.147614 130.155731,266.670349 
	C129.123978,266.123413 128.533264,266.111481 127.942535,266.099579 
	C127.942535,266.099579 127.961983,266.043518 128.305344,265.793274 
	C127.734245,264.712006 126.819794,263.880981 125.905342,263.049927 
	C125.905342,263.049927 125.990891,262.996643 126.304550,262.776520 
	C127.138382,261.009125 127.658554,259.461884 128.347687,257.412018 
	C127.710220,257.157990 126.309013,256.599579 124.907806,256.041199 
	C124.907806,256.041199 124.981537,256.030945 125.074448,255.679352 
	C124.744110,255.230576 124.320854,255.133408 123.897591,255.036240 
	C123.897591,255.036240 123.980736,254.997559 124.260994,254.797943 
	C124.003838,253.738098 123.466431,252.877869 122.938507,251.632034 
	C120.873672,243.621735 124.557251,238.062927 130.302963,234.213516 
	C136.269547,230.216110 142.993622,227.349350 149.813477,223.763611 
	C147.363495,224.104843 145.240234,224.400589 142.827072,224.736694 
	C147.106003,203.755310 158.459869,189.417191 178.372284,182.163574 
	C202.613770,173.332993 227.637726,167.576355 252.952896,162.929764 
	C257.066833,162.935623 261.180786,162.941498 266.040771,162.977570 
	C270.630188,164.899490 274.473541,166.791214 278.101807,168.926483 
	C277.759491,169.345337 277.632263,169.520645 277.155579,169.611298 
	C275.740051,169.378494 274.673981,169.230316 273.977020,169.133438 
	C277.732880,173.907410 281.256378,178.697937 285.161469,183.154053 
	C286.289703,184.441498 288.577942,185.538757 290.225708,185.403152 
	C297.835205,184.776871 305.435974,183.877075 312.984100,182.713562 
	C323.557739,181.083694 332.197937,183.142715 336.059509,193.024643 
	C344.991180,192.612946 353.215363,191.913544 361.429596,192.015091 
	C364.651550,192.054932 367.851349,193.888931 371.061218,194.905838 
	C371.061218,194.905838 371.039215,194.961014 370.675781,195.186371 
	C371.214630,199.347595 372.116943,203.283478 373.019257,207.219345 
	C372.607452,208.069504 372.195618,208.919662 371.093018,209.883881 
	C370.555847,211.555710 370.572083,213.141724 370.886261,214.666367 
	C372.403473,222.029709 374.000916,229.376526 375.369476,235.790070 
	C379.417664,239.268097 383.075043,242.410355 386.732422,245.552612 
M213.821701,184.651184 
	C213.679092,184.761642 213.574753,184.900772 212.918091,185.580048 
	C209.491592,191.711304 210.841980,196.696671 217.956329,203.052200 
	C217.656540,201.576889 217.443115,200.526566 217.840103,199.060745 
	C218.029083,198.903046 218.218079,198.745361 218.995377,198.908722 
	C222.301529,202.085205 225.392487,202.640045 230.011887,200.444260 
	C239.078125,196.134720 248.482895,192.289917 258.105743,189.478882 
	C265.497955,187.319504 273.439056,187.039230 281.205048,185.913300 
	C276.509705,175.625992 268.437439,169.525421 258.097107,171.212448 
	C245.073212,173.337311 232.354462,177.356628 219.541794,180.703064 
	C218.586060,180.952667 217.933044,182.361221 216.685776,182.483322 
	C215.807053,183.163544 214.928345,183.843765 213.821701,184.651184 
M293.926941,216.886841 
	C295.919342,216.897217 297.934082,217.106766 299.900604,216.886337 
	C315.163940,215.175385 316.734772,218.611298 316.917206,200.059616 
	C316.976379,194.040497 317.911835,188.746475 324.863464,186.607986 
	C319.264374,183.798981 315.199463,185.796936 314.183929,191.776443 
	C313.521271,195.678238 313.101959,199.694458 313.225739,203.638977 
	C313.397095,209.100662 310.875366,212.183228 305.820099,213.183609 
	C301.287872,214.080475 296.663025,214.509155 291.193695,215.048584 
	C286.170746,215.474274 281.147766,215.899948 276.124817,216.325638 
	C276.135406,216.488312 276.145996,216.651001 276.156555,216.813690 
	C281.773285,216.813690 287.389984,216.813690 293.926941,216.886841 
M248.007172,228.461548 
	C253.975311,228.405319 259.943451,228.349091 266.515381,228.656372 
	C267.687317,228.727310 268.859283,228.798264 270.770721,229.050766 
	C275.434235,230.893066 280.097748,232.735367 284.761261,234.577667 
	C285.097595,234.139801 285.433929,233.701935 285.770264,233.264069 
	C277.712402,232.532608 277.538513,226.999847 278.027222,220.356842 
	C267.331848,221.620712 257.166901,222.821884 246.325180,223.923706 
	C245.879333,224.005264 245.433502,224.086807 244.177368,224.131882 
	C242.538025,224.422440 240.881760,224.639999 239.262070,225.015305 
	C228.099167,227.601822 216.740372,229.584442 206.793076,235.850906 
	C201.436523,239.225311 199.006897,243.843201 200.134872,250.203949 
	C200.742233,253.628891 201.217392,257.077271 201.852493,261.159729 
	C195.215591,261.520111 188.762634,261.837952 182.314316,262.231628 
	C177.760025,262.509735 175.253967,260.859619 173.721725,256.121368 
	C171.034271,247.810822 166.578613,240.337662 159.271240,235.046036 
	C153.766937,231.060089 148.190674,230.993210 143.120499,234.467651 
	C162.781219,236.135315 164.546509,253.101929 170.142685,266.835571 
	C182.122269,266.835571 194.069366,266.835571 206.091843,266.835571 
	C205.217133,262.588165 204.057571,258.434753 203.565445,254.203751 
	C202.912155,248.586838 204.327087,243.264053 209.431931,240.263077 
	C218.910553,234.690872 228.991089,230.451950 240.462509,229.162918 
	C242.667953,228.919708 244.873398,228.676498 248.007172,228.461548 
M289.726807,228.324493 
	C289.994080,226.736221 290.912689,224.863464 290.372986,223.627655 
	C289.601440,221.861130 287.994781,220.091614 286.287781,219.247940 
	C285.357300,218.788071 282.674957,219.875229 282.216736,220.903610 
	C281.437805,222.651733 281.123657,225.167786 281.803345,226.892563 
	C283.402985,230.952179 286.806335,230.213120 290.732391,229.643616 
	C287.174713,235.716019 289.462494,241.606293 291.445679,247.415649 
	C293.929108,254.690414 296.927979,256.212128 304.334778,254.219345 
	C309.703064,252.775040 315.035797,251.198425 320.413910,249.672424 
	C321.886566,257.143158 312.116699,252.935211 312.190002,258.552368 
	C315.845428,262.652771 318.834961,263.168365 322.094238,259.310272 
	C324.100372,256.935547 324.857971,253.503204 326.161285,250.539185 
	C326.655579,249.415009 326.846069,247.527863 327.620850,247.255203 
	C334.216248,244.934265 340.914368,242.905289 347.581726,240.788803 
	C347.907318,241.238037 348.232910,241.687271 348.558502,242.136505 
	C347.149170,243.965607 345.394958,247.513153 344.393097,247.312057 
	C340.939850,246.618942 340.033142,248.384171 338.895813,250.606232 
	C340.919586,253.727386 343.770264,255.417664 346.531799,253.194641 
	C348.966095,251.235062 351.562683,247.992859 351.792572,245.132584 
	C352.124359,241.004639 352.115295,238.556946 357.146790,237.552887 
	C365.035767,235.978607 367.437408,231.310806 365.313873,223.494141 
	C364.410248,220.167938 362.868744,217.018219 361.721130,213.751770 
	C361.538208,213.231110 361.904572,212.517471 362.710876,211.993591 
	C363.018738,211.442734 363.326630,210.891876 363.634491,210.341003 
	C358.386993,207.853653 357.140076,203.628983 359.165375,197.532883 
	C354.323639,202.082275 357.199524,206.097809 357.107666,210.287018 
	C353.519928,210.504150 349.749512,210.081268 346.374664,211.044388 
	C327.402740,216.458496 307.768188,219.849747 289.726807,228.324493 
M222.945068,275.292999 
	C225.603195,275.375641 228.273300,275.659576 230.917145,275.502289 
	C238.174866,275.070496 238.523132,274.290649 237.584579,266.888672 
	C236.919113,261.640289 236.355148,256.267883 236.748016,251.025955 
	C237.188812,245.144775 240.665573,243.578186 245.733322,245.458252 
	C245.733322,248.455765 245.450378,251.232056 245.793015,253.928879 
	C246.478500,259.324371 247.759338,264.649994 248.322693,270.053650 
	C248.897354,275.565765 255.494095,282.897614 260.812897,283.303284 
	C265.852356,283.687653 269.920044,279.130188 271.089325,271.878693 
	C272.467438,263.331604 270.771790,255.335327 266.698608,247.816589 
	C263.561462,242.025681 258.503906,239.924042 252.084961,238.205948 
	C240.415039,235.082306 232.144958,240.267731 232.738098,252.236115 
	C232.943466,256.380157 233.749588,260.495819 233.925949,264.639587 
	C234.165619,270.270721 232.631195,271.852814 227.053284,271.946136 
	C212.097626,272.196411 197.140137,272.335876 182.184189,272.572174 
	C181.274567,272.586548 180.372223,273.061401 179.466507,273.321960 
	C179.523758,273.956268 179.581009,274.590576 179.638275,275.224884 
	C193.767212,275.224884 207.896164,275.224884 222.945068,275.292999 
M207.772110,196.839630 
	C204.956589,193.409668 202.314880,191.118149 196.895615,192.365173 
	C191.764725,193.545853 186.077820,192.112045 180.646469,192.253113 
	C176.857788,192.351532 174.397690,194.784637 174.129013,198.565994 
	C173.817703,202.947357 174.056503,207.367813 174.056503,212.279037 
	C186.837296,210.345459 199.214844,208.472885 212.202667,206.507980 
	C210.710785,203.170593 209.435303,200.317307 207.772110,196.839630 
M272.695953,207.114914 
	C262.667694,209.754044 252.639420,212.393173 242.611160,215.032288 
	C242.724579,215.486435 242.837982,215.940582 242.951401,216.394730 
	C243.540222,216.315048 244.130997,216.247635 244.717545,216.153870 
	C258.130493,214.009521 271.544067,211.869217 284.954956,209.712204 
	C290.511719,208.818436 296.111786,208.101852 301.585693,206.841965 
	C303.207001,206.468781 305.278320,204.759048 305.728790,203.241776 
	C306.837830,199.506393 307.125366,195.527100 307.573273,192.713608 
	C297.301483,196.420670 286.698639,200.247192 275.700409,204.216400 
	C278.895325,204.216400 281.796051,204.216400 284.696777,204.216400 
	C284.695343,204.389374 284.693939,204.562347 284.692505,204.735321 
	C280.972076,205.490433 277.251678,206.245560 272.695953,207.114914 
M159.719070,201.037354 
	C156.596039,204.882141 153.367310,208.649429 150.442200,212.639313 
	C149.879898,213.406296 150.296036,215.130966 150.727142,216.231094 
	C150.847610,216.538467 152.663834,216.329239 153.652405,216.120926 
	C156.692200,215.480331 159.678040,214.536362 162.738998,214.053406 
	C169.572403,212.975220 170.613113,211.928757 170.760605,205.076218 
	C170.796127,203.426483 170.774826,201.773422 170.715607,200.124207 
	C170.607758,197.119781 168.927460,196.302155 166.373505,197.391800 
	C164.282150,198.284073 162.342911,199.532822 159.719070,201.037354 
M330.021820,197.069855 
	C331.124603,193.108688 327.927856,191.926987 325.466492,191.173615 
	C322.175995,190.166443 319.735626,192.477570 319.469360,195.522232 
	C319.007111,200.808075 319.340912,206.163513 319.340912,211.607239 
	C325.047455,209.117798 330.393158,206.785767 336.482269,204.129425 
	C334.304474,202.617157 332.727264,201.521927 331.150024,200.426697 
	C334.714752,197.528763 330.502869,198.423584 330.021820,197.069855 
M184.757141,220.117157 
	C192.960983,219.184082 201.164841,218.250992 209.317566,217.323730 
	C210.164001,220.815765 210.920822,223.938019 211.677628,227.060272 
	C211.916199,226.955795 212.154770,226.851318 212.393356,226.746841 
	C213.028458,222.611481 213.663574,218.476135 214.449402,213.359375 
	C196.300827,216.413727 178.479492,219.413025 160.658157,222.412308 
	C160.762695,223.036041 160.867233,223.659775 160.971786,224.283508 
	C168.609177,222.934830 176.246582,221.586151 184.757141,220.117157 
M141.621841,255.035248 
	C140.080048,254.636490 138.538254,254.237732 136.996460,253.838974 
	C138.666122,252.961548 140.141785,252.827332 141.598099,252.579544 
	C143.157578,252.314194 144.698853,251.941895 146.450684,251.573715 
	C142.569031,248.568710 134.178253,246.829178 130.355057,248.218231 
	C127.179665,249.371933 127.394295,251.435089 129.275391,253.604721 
	C132.598862,257.438019 143.548050,259.213196 148.881363,256.592957 
	C146.494812,256.048096 144.455994,255.582642 141.621841,255.035248 
M277.200226,270.563385 
	C276.577362,273.714935 275.954468,276.866486 275.344360,279.953552 
	C285.076172,275.412598 285.953247,267.517670 283.530121,258.082367 
	C282.708649,262.849823 280.177460,260.989105 277.305847,259.649078 
	C277.305847,263.159760 277.305847,266.444427 277.200226,270.563385 
M351.273315,195.827972 
	C346.945160,196.226471 342.616974,196.624954 338.288818,197.023438 
	C338.102051,197.490997 337.915283,197.958557 337.728516,198.426117 
	C339.630524,199.919525 342.105469,203.042953 343.331085,202.612122 
	C347.653381,201.092789 354.503601,203.635239 355.729431,195.824661 
	C354.464417,195.824661 353.319000,195.824661 351.273315,195.827972 
M369.257019,200.294647 
	C367.807587,196.923431 365.333496,195.787933 362.125519,197.618622 
	C359.499268,199.117340 359.218445,203.711807 361.706268,205.900131 
	C362.875793,206.928833 365.897034,207.871658 366.312531,207.375137 
	C367.803864,205.592850 368.541138,203.179581 369.257019,200.294647 
M154.309021,275.615326 
	C153.764084,275.382660 153.219147,275.149963 152.328796,274.769806 
	C155.422806,281.105133 158.089630,282.210632 163.644882,279.808319 
	C163.507050,278.111694 163.369217,276.415100 163.217651,274.549530 
	C160.285995,275.048309 157.645233,275.497620 154.309021,275.615326 
M185.002304,234.729965 
	C187.295975,234.069351 189.589645,233.408737 191.883316,232.748123 
	C191.803024,232.445068 191.722717,232.142014 191.642426,231.838959 
	C184.193344,232.897964 176.744247,233.956985 169.295166,235.016006 
	C169.354630,235.468719 169.414108,235.921448 169.473572,236.374161 
	C174.371613,235.872711 179.269638,235.371246 185.002304,234.729965 
M180.008331,240.764282 
	C183.008484,240.099197 186.008636,239.434113 189.008789,238.769028 
	C188.955246,238.419342 188.901688,238.069656 188.848129,237.719955 
	C183.145447,238.289917 177.442764,238.859879 171.740082,239.429840 
	C171.774780,239.922897 171.809494,240.415955 171.844193,240.909012 
	C174.277786,240.909012 176.711380,240.909012 180.008331,240.764282 
M192.258835,237.530869 
	C192.074799,237.535904 191.890762,237.540939 191.706726,237.545990 
	C191.826019,237.593491 191.945328,237.640991 192.258835,237.530869 
M326.471771,187.538513 
	C326.471771,187.538513 326.433777,187.478363 326.471771,187.538513 
M360.522400,196.499237 
	C360.522400,196.499237 360.541626,196.530182 360.522400,196.499237 
z"/>
<path fill="#F1EDE6" opacity="1.000000" stroke="none" 
	d="
M252.786713,162.545761 
	C227.637726,167.576355 202.613770,173.332993 178.372284,182.163574 
	C158.459869,189.417191 147.106003,203.755310 142.827072,224.736694 
	C145.240234,224.400589 147.363495,224.104843 149.813477,223.763611 
	C142.993622,227.349350 136.269547,230.216110 130.302963,234.213516 
	C124.557251,238.062927 120.873672,243.621735 122.668427,251.639801 
	C122.208931,252.042236 122.029030,252.051300 121.849121,252.060349 
	C118.682816,242.568710 122.649635,234.619461 133.454895,229.035477 
	C138.505142,226.425552 140.958557,223.199722 142.458817,217.479767 
	C145.899506,204.361572 152.844437,193.002258 165.268646,186.345917 
	C171.955292,182.763550 179.091080,179.878128 186.272568,177.397079 
	C194.996353,174.383240 203.891769,171.742554 212.876099,169.636597 
	C225.217834,166.743668 237.710342,164.492279 250.147522,162.012543 
	C250.930801,161.856384 251.794327,162.102692 252.786713,162.545761 
z"/>
<path fill="#F1EDE6" opacity="1.000000" stroke="none" 
	d="
M278.316895,168.682938 
	C274.473541,166.791214 270.630188,164.899490 266.406921,162.972351 
	C271.791626,160.836838 279.303375,164.384415 283.016418,171.200851 
	C284.680298,174.255432 285.550354,177.797516 287.504700,180.616379 
	C288.538666,182.107697 291.172699,183.379608 293.002563,183.277969 
	C301.798767,182.789291 310.564606,181.770981 319.345947,180.993729 
	C328.019897,180.225983 333.994446,184.081711 337.438263,191.679718 
	C343.975830,190.758621 350.310669,189.486740 356.700226,189.084305 
	C361.937866,188.754425 366.912628,190.336716 370.938751,194.576782 
	C367.851349,193.888931 364.651550,192.054932 361.429596,192.015091 
	C353.215363,191.913544 344.991180,192.612946 336.059509,193.024643 
	C332.197937,183.142715 323.557739,181.083694 312.984100,182.713562 
	C305.435974,183.877075 297.835205,184.776871 290.225708,185.403152 
	C288.577942,185.538757 286.289703,184.441498 285.161469,183.154053 
	C281.256378,178.697937 277.732880,173.907410 273.977020,169.133438 
	C274.673981,169.230316 275.740051,169.378494 277.396820,169.735809 
	C278.097321,169.524277 278.207123,169.103607 278.316895,168.682938 
z"/>
<path fill="#EEE9E1" opacity="1.000000" stroke="none" 
	d="
M386.812592,245.201019 
	C383.075043,242.410355 379.417664,239.268097 375.369476,235.790070 
	C374.000916,229.376526 372.403473,222.029709 370.886261,214.666367 
	C370.572083,213.141724 370.555847,211.555710 370.821533,209.979675 
	C373.176025,217.953110 375.021912,225.968689 377.142700,233.910858 
	C377.461243,235.103683 378.939697,236.138840 380.099670,236.925232 
	C383.107086,238.964050 387.035675,240.132401 386.812592,245.201019 
z"/>
<path fill="#EEE9E1" opacity="1.000000" stroke="none" 
	d="
M137.954102,270.385498 
	C139.537872,270.144897 141.118912,270.257721 141.620041,270.293488 
	C138.703400,274.998657 135.284271,279.748749 132.855881,284.960510 
	C132.234680,286.293640 134.746887,289.086761 135.912231,291.559357 
	C130.567184,290.026978 128.635788,283.627075 132.094284,278.413269 
	C133.869232,275.737488 135.988007,273.289734 137.954102,270.385498 
z"/>
<path fill="#F1EDE6" opacity="1.000000" stroke="none" 
	d="
M373.395721,207.001007 
	C372.116943,203.283478 371.214630,199.347595 370.703247,195.175110 
	C375.516998,198.088364 373.830811,202.619507 373.395721,207.001007 
z"/>
<path fill="#F1ECE5" opacity="1.000000" stroke="none" 
	d="
M124.929810,256.415802 
	C126.309013,256.599579 127.710220,257.157990 128.347687,257.412018 
	C127.658554,259.461884 127.138382,261.009125 126.268692,262.811707 
	C125.596725,260.974823 125.274269,258.882629 124.929810,256.415802 
z"/>
<path fill="#F1ECE5" opacity="1.000000" stroke="none" 
	d="
M121.909714,252.387817 
	C122.029030,252.051300 122.208931,252.042236 122.658928,252.025391 
	C123.466431,252.877869 124.003838,253.738098 124.231239,254.832825 
	C123.270920,254.283295 122.620613,253.499283 121.909714,252.387817 
z"/>
<path fill="#F1ECE5" opacity="1.000000" stroke="none" 
	d="
M125.941238,263.380066 
	C126.819794,263.880981 127.734245,264.712006 128.278229,265.805298 
	C127.264214,265.281799 126.620682,264.496002 125.941238,263.380066 
z"/>
<path fill="#F1ECE5" opacity="1.000000" stroke="none" 
	d="
M128.035339,266.399536 
	C128.533264,266.111481 129.123978,266.123413 129.821289,266.517883 
	C129.327972,266.833405 128.728073,266.766418 128.035339,266.399536 
z"/>
<path fill="#F1ECE5" opacity="1.000000" stroke="none" 
	d="
M123.971443,255.304764 
	C124.320854,255.133408 124.744110,255.230576 125.074524,255.716553 
	C124.669556,255.928009 124.357430,255.750656 123.971443,255.304764 
z"/>
<path fill="#EEE9E1" opacity="1.000000" stroke="none" 
	d="
M362.016968,211.893051 
	C361.904572,212.517471 361.538208,213.231110 361.721130,213.751770 
	C362.868744,217.018219 364.410248,220.167938 365.313873,223.494141 
	C367.437408,231.310806 365.035767,235.978607 357.146790,237.552887 
	C352.115295,238.556946 352.124359,241.004639 351.792572,245.132584 
	C351.562683,247.992859 348.966095,251.235062 346.531799,253.194641 
	C343.770264,255.417664 340.919586,253.727386 338.895813,250.606232 
	C340.033142,248.384171 340.939850,246.618942 344.393097,247.312057 
	C345.394958,247.513153 347.149170,243.965607 348.558502,242.136505 
	C348.232910,241.687271 347.907318,241.238037 347.581726,240.788803 
	C340.914368,242.905289 334.216248,244.934265 327.620850,247.255203 
	C326.846069,247.527863 326.655579,249.415009 326.161285,250.539185 
	C324.857971,253.503204 324.100372,256.935547 322.094238,259.310272 
	C318.834961,263.168365 315.845428,262.652771 312.190002,258.552368 
	C312.116699,252.935211 321.886566,257.143158 320.413910,249.672424 
	C315.035797,251.198425 309.703064,252.775040 304.334778,254.219345 
	C296.927979,256.212128 293.929108,254.690414 291.445679,247.415649 
	C289.462494,241.606293 287.174713,235.716019 290.389526,229.337860 
	C290.046692,229.032120 290.008026,229.056458 290.008026,229.056458 
	C307.768188,219.849747 327.402740,216.458496 346.374664,211.044388 
	C349.749512,210.081268 353.519928,210.504150 357.554474,210.135437 
	C358.001282,209.983841 357.945099,209.993515 357.893250,210.310272 
	C358.236084,210.772568 358.630798,210.918106 359.016235,211.024811 
	C359.006958,210.985992 358.928619,211.001190 359.180176,211.321838 
	C360.308563,211.766815 361.185333,211.891144 362.068176,211.978485 
	C362.074188,211.941483 362.016968,211.893051 362.016968,211.893051 
M320.845978,227.121643 
	C322.514313,228.287476 322.340240,232.404068 325.633575,230.585037 
	C326.500824,230.106033 326.102142,227.335037 326.763031,225.210770 
	C326.911926,225.064011 327.060791,224.917252 327.802612,225.163834 
	C329.362518,227.427933 330.366669,231.263657 334.306854,227.272537 
	C333.741150,225.607605 333.163788,223.908447 332.566650,222.151062 
	C336.106659,221.997070 335.811615,230.257401 341.049072,225.428894 
	C340.516266,223.669418 339.992615,221.940201 339.375885,219.903671 
	C342.932922,220.326187 342.604126,228.266205 347.947937,223.481186 
	C347.456177,222.085602 346.953888,220.660156 346.124084,218.305298 
	C348.824829,220.316223 350.767242,221.762497 352.709625,223.208786 
	C353.145721,222.752670 353.581787,222.296555 354.017883,221.840439 
	C352.988312,219.853989 351.958771,217.867554 351.799896,215.798035 
	C353.576752,217.741562 355.353577,219.685089 357.420166,221.945541 
	C358.464233,221.599609 359.950867,221.107056 361.460663,220.606812 
	C358.732605,214.309982 356.727936,213.261368 349.018402,214.417755 
	C345.308167,215.302109 341.550385,216.024826 337.896210,217.099777 
	C324.548981,221.026108 311.152435,224.816330 297.949493,229.186676 
	C292.182312,231.095703 290.911285,235.604767 293.594482,241.321960 
	C296.023407,240.460983 298.482483,239.589325 301.195374,238.627701 
	C300.552979,236.609283 300.000519,234.873459 299.406555,233.007233 
	C302.879395,232.685898 303.002563,241.015808 307.939301,235.757462 
	C307.456421,234.239304 306.970917,232.712982 306.240143,230.415466 
	C308.783752,232.498749 310.562256,233.955414 312.340790,235.412064 
	C312.669037,235.043091 312.997284,234.674118 313.325500,234.305145 
	C313.086700,232.898972 312.847870,231.492813 312.440857,229.096268 
	C315.303619,231.559479 317.000580,235.510345 320.611267,231.588425 
	C320.280670,230.289276 319.917969,228.863800 319.881714,227.116455 
	C319.881714,227.116455 320.202454,226.788864 320.845978,227.121643 
M302.599945,243.031509 
	C299.749969,243.484024 296.899994,243.936539 293.605652,244.459610 
	C295.830597,248.927567 298.276825,251.793839 302.488739,250.800858 
	C308.714111,249.333221 314.787140,247.219528 321.654663,245.162369 
	C320.274872,242.247360 319.156799,239.885254 318.038696,237.523163 
	C317.726746,237.637192 317.414795,237.751221 317.102844,237.865250 
	C317.102844,239.618256 317.102844,241.371277 317.102844,244.075592 
	C315.917755,241.479202 315.141479,239.778427 314.365173,238.077652 
	C313.833069,238.050720 313.300934,238.023804 312.768799,237.996887 
	C312.284058,240.270325 311.799286,242.543777 311.241547,245.159439 
	C310.329742,243.197113 309.593292,241.612152 308.937042,240.199753 
	C303.093964,239.737167 305.632965,244.603561 304.255890,247.732315 
	C303.606598,245.823776 303.243134,244.755432 302.599945,243.031509 
M325.817139,243.270676 
	C333.221863,241.187576 340.626587,239.104477 348.411316,236.914474 
	C347.283203,234.473190 346.521362,232.824539 345.446320,230.498123 
	C344.955200,232.380035 344.705292,233.337570 344.235840,235.136414 
	C343.358887,232.923859 342.829956,231.589355 342.349518,230.377213 
	C336.564636,229.590439 338.682617,234.141083 337.680481,237.104507 
	C336.797638,235.146118 336.092834,233.582718 335.509308,232.288284 
	C329.780487,231.584503 331.562653,235.956100 330.755737,238.963013 
	C329.805237,237.046295 329.046936,235.517120 328.313446,234.037964 
	C323.549103,235.569397 322.465546,238.815033 325.817139,243.270676 
M351.875732,231.344452 
	C352.101013,232.530899 352.326294,233.717346 352.554688,234.920197 
	C362.159943,232.612747 363.708466,230.995712 362.351654,223.512772 
	C359.951294,225.548203 358.066528,227.146408 356.134918,228.784332 
	C355.623505,228.512466 354.268524,227.792175 352.913574,227.071869 
	C352.556183,228.209778 352.198792,229.347687 351.875732,231.344452 
z"/>
<path fill="#EEE9E1" opacity="1.000000" stroke="none" 
	d="
M222.485077,275.258942 
	C207.896164,275.224884 193.767212,275.224884 179.638275,275.224884 
	C179.581009,274.590576 179.523758,273.956268 179.466507,273.321960 
	C180.372223,273.061401 181.274567,272.586548 182.184189,272.572174 
	C197.140137,272.335876 212.097626,272.196411 227.053284,271.946136 
	C232.631195,271.852814 234.165619,270.270721 233.925949,264.639587 
	C233.749588,260.495819 232.943466,256.380157 232.738098,252.236115 
	C232.144958,240.267731 240.415039,235.082306 252.084961,238.205948 
	C258.503906,239.924042 263.561462,242.025681 266.698608,247.816589 
	C270.771790,255.335327 272.467438,263.331604 271.089325,271.878693 
	C269.920044,279.130188 265.852356,283.687653 260.812897,283.303284 
	C255.494095,282.897614 248.897354,275.565765 248.322693,270.053650 
	C247.759338,264.649994 246.478500,259.324371 245.793015,253.928879 
	C245.450378,251.232056 245.733322,248.455765 245.733322,245.458252 
	C240.665573,243.578186 237.188812,245.144775 236.748016,251.025955 
	C236.355148,256.267883 236.919113,261.640289 237.584579,266.888672 
	C238.523132,274.290649 238.174866,275.070496 230.917145,275.502289 
	C228.273300,275.659576 225.603195,275.375641 222.485077,275.258942 
M250.014145,259.184174 
	C252.194702,264.431519 253.653198,270.165314 256.765564,274.784882 
	C259.686157,279.119812 264.217896,277.835663 266.329407,272.936981 
	C269.412201,265.784943 266.445435,252.283340 260.631378,247.005493 
	C256.925720,243.641586 252.901566,244.320770 251.260406,249.050369 
	C250.260666,251.931458 250.383789,255.202148 250.014145,259.184174 
z"/>
<path fill="#EFEAE2" opacity="1.000000" stroke="none" 
	d="
M240.016083,228.905487 
	C228.991089,230.451950 218.910553,234.690872 209.431931,240.263077 
	C204.327087,243.264053 202.912155,248.586838 203.565445,254.203751 
	C204.057571,258.434753 205.217133,262.588165 206.091843,266.835571 
	C194.069366,266.835571 182.122269,266.835571 170.142685,266.835571 
	C164.546509,253.101929 162.781219,236.135315 143.120499,234.467651 
	C148.190674,230.993210 153.766937,231.060089 159.271240,235.046036 
	C166.578613,240.337662 171.034271,247.810822 173.721725,256.121368 
	C175.253967,260.859619 177.760025,262.509735 182.314316,262.231628 
	C188.762634,261.837952 195.215591,261.520111 201.852493,261.159729 
	C201.217392,257.077271 200.742233,253.628891 200.134872,250.203949 
	C199.006897,243.843201 201.436523,239.225311 206.793076,235.850906 
	C216.740372,229.584442 228.099167,227.601822 239.262070,225.015305 
	C240.881760,224.639999 242.538025,224.422440 244.580399,224.471527 
	C244.230408,225.228271 243.383316,225.536575 242.746155,226.087631 
	C241.760773,226.939789 240.918854,227.957809 240.016083,228.905487 
z"/>
<path fill="#F4F3EB" opacity="1.000000" stroke="none" 
	d="
M207.965973,197.151825 
	C209.435303,200.317307 210.710785,203.170593 212.202667,206.507980 
	C199.214844,208.472885 186.837296,210.345459 174.056503,212.279037 
	C174.056503,207.367813 173.817703,202.947357 174.129013,198.565994 
	C174.397690,194.784637 176.857788,192.351532 180.646469,192.253113 
	C186.077820,192.112045 191.764725,193.545853 196.895615,192.365173 
	C202.314880,191.118149 204.956589,193.409668 207.965973,197.151825 
z"/>
<path fill="#F1ECE5" opacity="1.000000" stroke="none" 
	d="
M217.229691,199.476242 
	C217.443115,200.526566 217.656540,201.576889 217.956329,203.052200 
	C210.841980,196.696671 209.491592,191.711304 213.335785,185.597610 
	C213.870773,185.776703 213.988052,185.938248 214.069031,186.466156 
	C211.805695,190.273987 215.566452,191.295013 216.810333,193.118607 
	C221.701767,200.289597 223.162064,200.518112 231.201843,197.343918 
	C234.608154,195.999100 238.215073,195.169632 241.659943,193.911804 
	C243.121643,193.378113 244.378738,192.304184 245.768585,191.548950 
	C248.026245,190.322159 250.203796,188.494705 252.613632,188.083221 
	C260.982788,186.654205 269.437347,185.725479 277.859436,184.606430 
	C278.062103,184.160645 278.264801,183.714859 278.467468,183.269073 
	C275.989594,181.850403 273.656738,180.001709 271.002319,179.106506 
	C266.131134,177.463684 261.070343,176.382965 256.516418,175.066376 
	C260.820496,175.369171 264.696716,175.673508 268.572937,175.977859 
	C268.620972,175.393188 268.669006,174.808517 268.717010,174.223846 
	C264.173431,174.051620 259.622803,173.665878 255.089859,173.815353 
	C253.349670,173.872742 251.649734,175.150589 249.513977,175.938629 
	C238.422958,178.364838 227.749435,180.724731 217.092865,183.120728 
	C217.109818,183.156845 217.139313,183.231018 217.139313,183.231018 
	C217.933044,182.361221 218.586060,180.952667 219.541794,180.703064 
	C232.354462,177.356628 245.073212,173.337311 258.097107,171.212448 
	C268.437439,169.525421 276.509705,175.625992 281.205048,185.913300 
	C273.439056,187.039230 265.497955,187.319504 258.105743,189.478882 
	C248.482895,192.289917 239.078125,196.134720 230.011887,200.444260 
	C225.392487,202.640045 222.301529,202.085205 218.498962,198.517639 
	C217.744919,198.576447 217.487305,199.026352 217.229691,199.476242 
z"/>
<path fill="#D7756C" opacity="1.000000" stroke="none" 
	d="
M273.113586,207.057800 
	C277.251678,206.245560 280.972076,205.490433 284.692505,204.735321 
	C284.693939,204.562347 284.695343,204.389374 284.696777,204.216400 
	C281.796051,204.216400 278.895325,204.216400 275.700409,204.216400 
	C286.698639,200.247192 297.301483,196.420670 307.573273,192.713608 
	C307.125366,195.527100 306.837830,199.506393 305.728790,203.241776 
	C305.278320,204.759048 303.207001,206.468781 301.585693,206.841965 
	C296.111786,208.101852 290.511719,208.818436 284.954956,209.712204 
	C271.544067,211.869217 258.130493,214.009521 244.717545,216.153870 
	C244.130997,216.247635 243.540222,216.315048 242.951401,216.394730 
	C242.837982,215.940582 242.724579,215.486435 242.611160,215.032288 
	C252.639420,212.393173 262.667694,209.754044 273.113586,207.057800 
z"/>
<path fill="#F1EEE6" opacity="1.000000" stroke="none" 
	d="
M160.027649,200.830444 
	C162.342911,199.532822 164.282150,198.284073 166.373505,197.391800 
	C168.927460,196.302155 170.607758,197.119781 170.715607,200.124207 
	C170.774826,201.773422 170.796127,203.426483 170.760605,205.076218 
	C170.613113,211.928757 169.572403,212.975220 162.738998,214.053406 
	C159.678040,214.536362 156.692200,215.480331 153.652405,216.120926 
	C152.663834,216.329239 150.847610,216.538467 150.727142,216.231094 
	C150.296036,215.130966 149.879898,213.406296 150.442200,212.639313 
	C153.367310,208.649429 156.596039,204.882141 160.027649,200.830444 
z"/>
<path fill="#D37269" opacity="1.000000" stroke="none" 
	d="
M329.900757,197.343384 
	C330.502869,198.423584 334.714752,197.528763 331.150024,200.426697 
	C332.727264,201.521927 334.304474,202.617157 336.482269,204.129425 
	C330.393158,206.785767 325.047455,209.117798 319.340912,211.607239 
	C319.340912,206.163513 319.007111,200.808075 319.469360,195.522232 
	C319.735626,192.477570 322.175995,190.166443 325.466492,191.173615 
	C327.927856,191.926987 331.124603,193.108688 329.900757,197.343384 
z"/>
<path fill="#EFEAE2" opacity="1.000000" stroke="none" 
	d="
M265.911591,228.292877 
	C259.943451,228.349091 253.975311,228.405319 247.520416,228.005463 
	C247.023102,226.373947 247.012543,225.198517 247.001984,224.023071 
	C257.166901,222.821884 267.331848,221.620712 278.027222,220.356842 
	C277.538513,226.999847 277.712402,232.532608 285.770264,233.264069 
	C285.433929,233.701935 285.097595,234.139801 284.761261,234.577667 
	C280.097748,232.735367 275.434235,230.893066 270.495728,228.703674 
	C268.762238,226.023224 267.742126,226.008133 265.911591,228.292877 
z"/>
<path fill="#D5736A" opacity="1.000000" stroke="none" 
	d="
M292.079041,215.144379 
	C296.663025,214.509155 301.287872,214.080475 305.820099,213.183609 
	C310.875366,212.183228 313.397095,209.100662 313.225739,203.638977 
	C313.101959,199.694458 313.521271,195.678238 314.183929,191.776443 
	C315.199463,185.796936 319.264374,183.798981 324.863464,186.607986 
	C317.911835,188.746475 316.976379,194.040497 316.917206,200.059616 
	C316.734772,218.611298 315.163940,215.175385 299.900604,216.886337 
	C297.934082,217.106766 295.919342,216.897217 293.350037,216.642181 
	C292.541779,215.979797 292.310394,215.562088 292.079041,215.144379 
z"/>
<path fill="#CE6E65" opacity="1.000000" stroke="none" 
	d="
M184.320557,220.177322 
	C176.246582,221.586151 168.609177,222.934830 160.971786,224.283508 
	C160.867233,223.659775 160.762695,223.036041 160.658157,222.412308 
	C178.479492,219.413025 196.300827,216.413727 214.449402,213.359375 
	C213.663574,218.476135 213.028458,222.611481 212.393356,226.746841 
	C212.154770,226.851318 211.916199,226.955795 211.677628,227.060272 
	C210.920822,223.938019 210.164001,220.815765 209.317566,217.323730 
	C201.164841,218.250992 192.960983,219.184082 184.320557,220.177322 
z"/>
<path fill="#D5736A" opacity="1.000000" stroke="none" 
	d="
M142.019501,255.076218 
	C144.455994,255.582642 146.494812,256.048096 148.881363,256.592957 
	C143.548050,259.213196 132.598862,257.438019 129.275391,253.604721 
	C127.394295,251.435089 127.179665,249.371933 130.355057,248.218231 
	C134.178253,246.829178 142.569031,248.568710 146.450684,251.573715 
	C144.698853,251.941895 143.157578,252.314194 141.598099,252.579544 
	C140.141785,252.827332 138.666122,252.961548 136.996460,253.838974 
	C138.538254,254.237732 140.080048,254.636490 142.019501,255.076218 
z"/>
<path fill="#E8DFD7" opacity="1.000000" stroke="none" 
	d="
M277.253052,270.146240 
	C277.305847,266.444427 277.305847,263.159760 277.305847,259.649078 
	C280.177460,260.989105 282.708649,262.849823 283.530121,258.082367 
	C285.953247,267.517670 285.076172,275.412598 275.344360,279.953552 
	C275.954468,276.866486 276.577362,273.714935 277.253052,270.146240 
z"/>
<path fill="#F1EEE6" opacity="1.000000" stroke="none" 
	d="
M351.723450,195.826324 
	C353.319000,195.824661 354.464417,195.824661 355.729431,195.824661 
	C354.503601,203.635239 347.653381,201.092789 343.331085,202.612122 
	C342.105469,203.042953 339.630524,199.919525 337.728516,198.426117 
	C337.915283,197.958557 338.102051,197.490997 338.288818,197.023438 
	C342.616974,196.624954 346.945160,196.226471 351.723450,195.826324 
z"/>
<path fill="#F1ECE5" opacity="1.000000" stroke="none" 
	d="
M290.058563,229.012512 
	C286.806335,230.213120 283.402985,230.952179 281.803345,226.892563 
	C281.123657,225.167786 281.437805,222.651733 282.216736,220.903610 
	C282.674957,219.875229 285.357300,218.788071 286.287781,219.247940 
	C287.994781,220.091614 289.601440,221.861130 290.372986,223.627655 
	C290.912689,224.863464 289.994080,226.736221 289.867432,228.690475 
	C290.008026,229.056458 290.046692,229.032120 290.058563,229.012512 
z"/>
<path fill="#F1ECE5" opacity="1.000000" stroke="none" 
	d="
M369.410248,200.649750 
	C368.541138,203.179581 367.803864,205.592850 366.312531,207.375137 
	C365.897034,207.871658 362.875793,206.928833 361.706268,205.900131 
	C359.218445,203.711807 359.499268,199.117340 362.125519,197.618622 
	C365.333496,195.787933 367.807587,196.923431 369.410248,200.649750 
z"/>
<path fill="#E8DFD7" opacity="1.000000" stroke="none" 
	d="
M154.656738,275.781128 
	C157.645233,275.497620 160.285995,275.048309 163.217651,274.549530 
	C163.369217,276.415100 163.507050,278.111694 163.648621,279.814117 
	C158.089630,282.210632 155.422806,281.105133 152.328796,274.769806 
	C153.219147,275.149963 153.764084,275.382660 154.656738,275.781128 
z"/>
<path fill="#CE6E65" opacity="1.000000" stroke="none" 
	d="
M184.584991,234.799881 
	C179.269638,235.371246 174.371613,235.872711 169.473572,236.374161 
	C169.414108,235.921448 169.354630,235.468719 169.295166,235.016006 
	C176.744247,233.956985 184.193344,232.897964 191.642426,231.838959 
	C191.722717,232.142014 191.803024,232.445068 191.883316,232.748123 
	C189.589645,233.408737 187.295975,234.069351 184.584991,234.799881 
z"/>
<path fill="#E8DFD7" opacity="1.000000" stroke="none" 
	d="
M357.999908,210.012131 
	C357.199524,206.097809 354.323639,202.082275 359.165375,197.532883 
	C357.140076,203.628983 358.386993,207.853653 363.634521,210.341003 
	C363.326630,210.891876 363.018738,211.442734 362.363922,211.943329 
	C362.016968,211.893051 362.074188,211.941483 361.855957,211.669724 
	C360.734680,211.265701 359.831635,211.133453 358.928619,211.001190 
	C358.928619,211.001190 359.006958,210.985992 359.136353,210.645630 
	C358.825531,210.201340 358.385315,210.097427 357.945099,209.993515 
	C357.945099,209.993515 358.001282,209.983841 357.999908,210.012131 
z"/>
<path fill="#C2655C" opacity="1.000000" stroke="none" 
	d="
M179.576660,240.836639 
	C176.711380,240.909012 174.277786,240.909012 171.844193,240.909012 
	C171.809494,240.415955 171.774780,239.922897 171.740082,239.429840 
	C177.442764,238.859879 183.145447,238.289917 188.848129,237.719955 
	C188.901688,238.069656 188.955246,238.419342 189.008789,238.769028 
	C186.008636,239.434113 183.008484,240.099197 179.576660,240.836639 
z"/>
<path fill="#E8DFD7" opacity="1.000000" stroke="none" 
	d="
M246.663574,223.973389 
	C247.012543,225.198517 247.023102,226.373947 247.056244,227.991333 
	C244.873398,228.676498 242.667953,228.919708 240.239304,229.034210 
	C240.918854,227.957809 241.760773,226.939789 242.746155,226.087631 
	C243.383316,225.536575 244.230408,225.228271 244.985535,224.489777 
	C245.433502,224.086807 245.879333,224.005264 246.663574,223.973389 
z"/>
<path fill="#C2655C" opacity="1.000000" stroke="none" 
	d="
M291.636353,215.096481 
	C292.310394,215.562088 292.541779,215.979797 292.889923,216.605591 
	C287.389984,216.813690 281.773285,216.813690 276.156555,216.813690 
	C276.145996,216.651001 276.135406,216.488312 276.124817,216.325638 
	C281.147766,215.899948 286.170746,215.474274 291.636353,215.096481 
z"/>
<path fill="#E8DFD7" opacity="1.000000" stroke="none" 
	d="
M266.213501,228.474609 
	C267.742126,226.008133 268.762238,226.023224 270.125977,228.612885 
	C268.859283,228.798264 267.687317,228.727310 266.213501,228.474609 
z"/>
<path fill="#F1ECE5" opacity="1.000000" stroke="none" 
	d="
M214.049637,184.523987 
	C214.928345,183.843765 215.807053,183.163544 216.912537,182.857178 
	C217.139313,183.231018 217.109818,183.156845 217.014130,183.406158 
	C216.315536,184.141281 215.712616,184.627106 214.858932,184.940033 
	C214.421997,184.686081 214.235809,184.605026 214.049637,184.523987 
z"/>
<path fill="#C2655C" opacity="1.000000" stroke="none" 
	d="
M192.161728,237.609680 
	C191.945328,237.640991 191.826019,237.593491 191.706726,237.545990 
	C191.890762,237.540939 192.074799,237.535904 192.161728,237.609680 
z"/>
<path fill="#F1ECE5" opacity="1.000000" stroke="none" 
	d="
M213.631073,185.341888 
	C213.574753,184.900772 213.679092,184.761642 213.935669,184.587585 
	C214.235809,184.605026 214.421997,184.686081 214.784592,185.184723 
	C214.675797,185.768127 214.390564,185.933960 214.105347,186.099792 
	C213.988052,185.938248 213.870773,185.776703 213.631073,185.341888 
z"/>
<path fill="#D5736A" opacity="1.000000" stroke="none" 
	d="
M326.452759,187.508438 
	C326.433777,187.478363 326.471771,187.538513 326.452759,187.508438 
z"/>
<path fill="#E8DFD7" opacity="1.000000" stroke="none" 
	d="
M360.532013,196.514709 
	C360.541626,196.530182 360.522400,196.499237 360.532013,196.514709 
z"/>
<path fill="#7F352E" opacity="1.000000" stroke="none" 
	d="
M278.101837,168.926483 
	C278.207123,169.103607 278.097321,169.524277 277.746307,169.820435 
	C277.632263,169.520645 277.759491,169.345337 278.101837,168.926483 
z"/>
<path fill="#833C35" opacity="1.000000" stroke="none" 
	d="
M350.929199,215.881104 
	C351.958771,217.867554 352.988312,219.853989 354.017883,221.840439 
	C353.581787,222.296555 353.145721,222.752670 352.709625,223.208786 
	C350.767242,221.762497 348.824829,220.316223 346.124084,218.305298 
	C346.953888,220.660156 347.456177,222.085602 347.947937,223.481186 
	C342.604126,228.266205 342.932922,220.326187 339.375885,219.903671 
	C339.992615,221.940201 340.516266,223.669418 341.049072,225.428894 
	C335.811615,230.257401 336.106659,221.997070 332.566650,222.151062 
	C333.163788,223.908447 333.741150,225.607605 334.306854,227.272537 
	C330.366669,231.263657 329.362518,227.427933 327.355469,224.720337 
	C326.452118,224.251862 325.995972,224.226852 325.539795,224.201843 
	C325.788116,224.673416 326.036469,225.144974 326.284790,225.616547 
	C326.102142,227.335037 326.500824,230.106033 325.633575,230.585037 
	C322.340240,232.404068 322.514313,228.287476 320.374298,226.712860 
	C319.630829,226.328339 319.359009,226.352615 319.087219,226.376877 
	C319.243225,226.730698 319.399231,227.084518 319.555237,227.438324 
	C319.917969,228.863800 320.280670,230.289276 320.611267,231.588425 
	C317.000580,235.510345 315.303619,231.559479 312.440857,229.096268 
	C312.847870,231.492813 313.086700,232.898972 313.325500,234.305145 
	C312.997284,234.674118 312.669037,235.043091 312.340790,235.412064 
	C310.562256,233.955414 308.783752,232.498749 306.240143,230.415466 
	C306.970917,232.712982 307.456421,234.239304 307.939301,235.757462 
	C303.002563,241.015808 302.879395,232.685898 299.406555,233.007233 
	C300.000519,234.873459 300.552979,236.609283 301.195374,238.627701 
	C298.482483,239.589325 296.023407,240.460983 293.594482,241.321960 
	C290.911285,235.604767 292.182312,231.095703 297.949493,229.186676 
	C311.152435,224.816330 324.548981,221.026108 337.896210,217.099777 
	C341.550385,216.024826 345.308167,215.302109 349.482422,214.626038 
	C350.274048,215.183258 350.601624,215.532181 350.929199,215.881104 
z"/>
<path fill="#864039" opacity="1.000000" stroke="none" 
	d="
M302.739807,243.359299 
	C303.243134,244.755432 303.606598,245.823776 304.255890,247.732315 
	C305.632965,244.603561 303.093964,239.737167 308.937042,240.199753 
	C309.593292,241.612152 310.329742,243.197113 311.241547,245.159439 
	C311.799286,242.543777 312.284058,240.270325 312.768799,237.996887 
	C313.300934,238.023804 313.833069,238.050720 314.365173,238.077652 
	C315.141479,239.778427 315.917755,241.479202 317.102844,244.075592 
	C317.102844,241.371277 317.102844,239.618256 317.102844,237.865250 
	C317.414795,237.751221 317.726746,237.637192 318.038696,237.523163 
	C319.156799,239.885254 320.274872,242.247360 321.654663,245.162369 
	C314.787140,247.219528 308.714111,249.333221 302.488739,250.800858 
	C298.276825,251.793839 295.830597,248.927567 293.605652,244.459610 
	C296.899994,243.936539 299.749969,243.484024 302.739807,243.359299 
z"/>
<path fill="#853F38" opacity="1.000000" stroke="none" 
	d="
M325.409973,243.182709 
	C322.465546,238.815033 323.549103,235.569397 328.313446,234.037964 
	C329.046936,235.517120 329.805237,237.046295 330.755737,238.963013 
	C331.562653,235.956100 329.780487,231.584503 335.509308,232.288284 
	C336.092834,233.582718 336.797638,235.146118 337.680481,237.104507 
	C338.682617,234.141083 336.564636,229.590439 342.349518,230.377213 
	C342.829956,231.589355 343.358887,232.923859 344.235840,235.136414 
	C344.705292,233.337570 344.955200,232.380035 345.446320,230.498123 
	C346.521362,232.824539 347.283203,234.473190 348.411316,236.914474 
	C340.626587,239.104477 333.221863,241.187576 325.409973,243.182709 
z"/>
<path fill="#853F38" opacity="1.000000" stroke="none" 
	d="
M351.858582,230.915024 
	C352.198792,229.347687 352.556183,228.209778 352.913574,227.071869 
	C354.268524,227.792175 355.623505,228.512466 356.134918,228.784332 
	C358.066528,227.146408 359.951294,225.548203 362.351654,223.512772 
	C363.708466,230.995712 362.159943,232.612747 352.554688,234.920197 
	C352.326294,233.717346 352.101013,232.530899 351.858582,230.915024 
z"/>
<path fill="#864039" opacity="1.000000" stroke="none" 
	d="
M351.364563,215.839569 
	C350.601624,215.532181 350.274048,215.183258 349.899231,214.585541 
	C356.727936,213.261368 358.732605,214.309982 361.460663,220.606812 
	C359.950867,221.107056 358.464233,221.599609 357.420166,221.945541 
	C355.353577,219.685089 353.576752,217.741562 351.364563,215.839569 
z"/>
<path fill="#7F352E" opacity="1.000000" stroke="none" 
	d="
M359.180176,211.321838 
	C359.831635,211.133453 360.734680,211.265701 361.849915,211.706726 
	C361.185333,211.891144 360.308563,211.766815 359.180176,211.321838 
z"/>
<path fill="#7F352E" opacity="1.000000" stroke="none" 
	d="
M357.893250,210.310272 
	C358.385315,210.097427 358.825531,210.201340 359.145630,210.684448 
	C358.630798,210.918106 358.236084,210.772568 357.893250,210.310272 
z"/>
<path fill="#843D36" opacity="1.000000" stroke="none" 
	d="
M250.008347,258.741028 
	C250.383789,255.202148 250.260666,251.931458 251.260406,249.050369 
	C252.901566,244.320770 256.925720,243.641586 260.631378,247.005493 
	C266.445435,252.283340 269.412201,265.784943 266.329407,272.936981 
	C264.217896,277.835663 259.686157,279.119812 256.765564,274.784882 
	C253.653198,270.165314 252.194702,264.431519 250.008347,258.741028 
M260.040192,253.236191 
	C258.419983,252.958557 256.799774,252.680908 255.179565,252.403259 
	C254.996078,254.198227 254.556274,256.012512 254.689774,257.783569 
	C254.885330,260.378235 255.129333,263.079407 256.038391,265.474976 
	C256.752258,267.356171 258.504211,268.843445 259.795013,270.505737 
	C261.023376,269.175751 263.397186,267.727448 263.274231,266.536957 
	C262.831635,262.251007 261.546844,258.052002 260.040192,253.236191 
z"/>
<path fill="#000000" opacity="1.000000" stroke="none" 
	d="
M214.069016,186.466141 
	C214.390564,185.933960 214.675797,185.768127 215.035355,185.357605 
	C215.712616,184.627106 216.315536,184.141281 216.997177,183.370026 
	C227.749435,180.724731 238.422958,178.364838 249.911041,175.974243 
	C252.513275,175.651672 254.300934,175.359787 256.088593,175.067917 
	C261.070343,176.382965 266.131134,177.463684 271.002319,179.106506 
	C273.656738,180.001709 275.989594,181.850403 278.467468,183.269073 
	C278.264801,183.714859 278.062103,184.160645 277.859436,184.606430 
	C269.437347,185.725479 260.982788,186.654205 252.613632,188.083221 
	C250.203796,188.494705 248.026245,190.322159 245.768585,191.548950 
	C244.378738,192.304184 243.121643,193.378113 241.659943,193.911804 
	C238.215073,195.169632 234.608154,195.999100 231.201843,197.343918 
	C223.162064,200.518112 221.701767,200.289597 216.810333,193.118607 
	C215.566452,191.295013 211.805695,190.273987 214.069016,186.466141 
z"/>
<path fill="#92544D" opacity="1.000000" stroke="none" 
	d="
M256.516418,175.066376 
	C254.300934,175.359787 252.513275,175.651672 250.328552,175.907928 
	C251.649734,175.150589 253.349670,173.872742 255.089859,173.815353 
	C259.622803,173.665878 264.173431,174.051620 268.717010,174.223846 
	C268.669006,174.808517 268.620972,175.393188 268.572937,175.977859 
	C264.696716,175.673508 260.820496,175.369171 256.516418,175.066376 
z"/>
<path fill="#7F352E" opacity="1.000000" stroke="none" 
	d="
M217.534897,199.268494 
	C217.487305,199.026352 217.744919,198.576447 218.204803,198.357117 
	C218.218079,198.745361 218.029083,198.903046 217.534897,199.268494 
z"/>
<path fill="#EEE9E1" opacity="1.000000" stroke="none" 
	d="
M326.523926,225.413666 
	C326.036469,225.144974 325.788116,224.673416 325.539795,224.201843 
	C325.995972,224.226852 326.452118,224.251862 327.058990,224.523682 
	C327.060791,224.917252 326.911926,225.064011 326.523926,225.413666 
z"/>
<path fill="#EEE9E1" opacity="1.000000" stroke="none" 
	d="
M319.718475,227.277390 
	C319.399231,227.084518 319.243225,226.730698 319.087219,226.376877 
	C319.359009,226.352615 319.630829,226.328339 320.052551,226.546463 
	C320.202454,226.788864 319.881714,227.116455 319.718475,227.277390 
z"/>
<path fill="#F1EEE6" opacity="1.000000" stroke="none" 
	d="
M260.310211,253.528168 
	C261.546844,258.052002 262.831635,262.251007 263.274231,266.536957 
	C263.397186,267.727448 261.023376,269.175751 259.795013,270.505737 
	C258.504211,268.843445 256.752258,267.356171 256.038391,265.474976 
	C255.129333,263.079407 254.885330,260.378235 254.689774,257.783569 
	C254.556274,256.012512 254.996078,254.198227 255.179565,252.403259 
	C256.799774,252.680908 258.419983,252.958557 260.310211,253.528168 
z"/>
</svg>